<?xml version="1.0" encoding="UTF-8"?>
<svg width="261px" height="68px" viewBox="0 0 261 68" version="1.1" xmlns="http://www.w3.org/2000/svg" xmlns:xlink="http://www.w3.org/1999/xlink">
    <!-- Generator: Sketch 63.1 (92452) - https://sketch.com -->
    <title>Group</title>
    <desc>Created with Sketch.</desc>
    <g id="Page-1" stroke="none" stroke-width="1" fill="none" fill-rule="evenodd">
        <g id="Group">
            <g id="logo">
                <path d="M260.313,15.9561 L251.158,15.9561 C251.242,16.2902 251.191,16.758 251.041,17.3595 L243.375,45.0104 C243.191,45.6119 242.973,46.063 242.706,46.4139 L251.878,46.4139 C251.811,46.0463 251.844,45.5785 251.995,45.0104 L259.66,17.3595 C259.844,16.7413 260.062,16.2735 260.313,15.9561 Z M248.781,15.9561 C248.53,16.2735 248.296,16.7413 248.112,17.3595 L240.446,45.0104 C240.296,45.5785 240.262,46.0463 240.346,46.4139 L231.174,46.4139 C231.442,46.063 231.659,45.6119 231.843,45.0104 L239.509,17.3595 C239.66,16.758 239.693,16.2902 239.626,15.9561 L248.781,15.9561 Z M220.847,31.2602 C221.399,29.3555 221.935,27.9855 222.47,27.1668 C223.006,26.3482 223.609,25.9305 224.261,25.9305 C225.232,25.9305 225.6,26.699 225.366,28.2695 C225.249,28.9879 225.048,29.9904 224.747,31.2769 L220.847,31.2769 L220.847,31.2602 Z M229.015,44.7932 L229.567,40.0149 C228.178,41.1009 226.939,41.8861 225.868,42.354 C224.78,42.8218 223.692,43.0557 222.571,43.0557 C221.516,43.0557 220.68,42.7883 220.027,42.237 C219.391,41.6856 219.056,40.9004 218.972,39.9147 C218.889,38.8454 219.106,37.3083 219.625,35.27 L232.73,35.27 C232.831,34.9024 232.898,34.6685 232.931,34.5683 C233.651,31.9285 233.952,29.7899 233.835,28.1526 C233.701,26.4985 233.115,25.1452 232.078,24.0425 C230.873,22.756 228.814,22.1044 225.868,22.1044 C222.32,22.1044 219.274,23.157 216.73,25.2622 C213.884,27.6346 211.893,30.8425 210.771,34.9191 C209.349,39.9982 210.286,43.5569 213.583,45.5451 C215.022,46.4306 217.098,46.865 219.809,46.865 C221.516,46.865 223.006,46.7313 224.278,46.4473 C225.533,46.1633 227.107,45.6119 229.015,44.7932 Z M189.984,35.5206 L196.193,24.243 C196.361,23.9423 196.478,23.6917 196.528,23.4745 C196.561,23.3408 196.578,23.1403 196.595,22.8396 L204.846,22.8396 C204.696,23.0735 204.595,23.274 204.562,23.441 C204.512,23.6917 204.478,23.959 204.461,24.243 L203.976,35.5206 L210.169,24.243 C210.353,23.8922 210.47,23.6582 210.52,23.5079 C210.554,23.3742 210.57,23.1403 210.57,22.8396 L215.123,22.8396 C214.755,23.1904 214.42,23.6582 214.085,24.243 L202.771,45.0272 C202.587,45.378 202.47,45.6286 202.419,45.7623 C202.369,45.8959 202.369,46.1298 202.369,46.4306 L194.352,46.4306 C194.503,46.1298 194.603,45.9127 194.637,45.7623 C194.687,45.5785 194.72,45.3279 194.737,45.0272 L195.189,33.2149 L188.762,45.0272 C188.528,45.495 188.36,45.8625 188.276,46.1466 C188.26,46.2134 188.243,46.2969 188.21,46.4306 L180.728,46.4306 C180.778,46.2802 180.812,46.1633 180.828,46.0964 C180.912,45.8124 180.946,45.4281 180.962,44.977 L181.247,24.243 C181.247,23.6415 181.163,23.1737 180.996,22.8396 L190.787,22.8396 C190.62,23.1403 190.519,23.3575 190.486,23.5079 C190.452,23.6582 190.419,23.9089 190.402,24.243 L189.984,35.5206 Z M169.732,27.1 C169.38,27.0833 169.012,27.2337 168.627,27.5344 C168.242,27.8518 167.941,28.2361 167.723,28.7206 C167.405,29.4056 166.769,31.4105 165.799,34.6852 C164.978,37.893 164.51,39.8645 164.426,40.6331 C164.376,41.1176 164.443,41.5186 164.644,41.8193 C164.844,42.12 165.129,42.2704 165.497,42.2704 C166.183,42.2704 166.836,41.7191 167.405,40.6331 C167.991,39.5304 168.677,37.5756 169.447,34.7687 C170.251,31.8783 170.669,29.8734 170.702,28.8042 C170.769,27.7015 170.435,27.1334 169.732,27.1 Z M163.204,45.0773 L161.497,51.2256 C161.33,51.8438 161.296,52.3116 161.38,52.6291 L152.208,52.6291 C152.476,52.2615 152.71,51.8104 152.877,51.2256 L160.359,24.2263 C160.51,23.6582 160.543,23.1904 160.476,22.8229 L169.146,22.8229 L168.661,24.5772 C170.251,22.9398 172.159,22.1212 174.368,22.1212 C175.841,22.1212 177.012,22.5556 177.916,23.4243 C179.874,25.3123 180.075,29.0882 178.502,34.7687 C177.414,38.6616 175.924,41.6355 173.983,43.6906 C173.046,44.6763 171.958,45.4615 170.736,46.0129 C169.497,46.5642 168.225,46.8483 166.937,46.8483 C165.112,46.8483 163.874,46.2468 163.204,45.0773 Z M143.605,31.2602 C144.157,29.3555 144.71,27.9855 145.229,27.1668 C145.764,26.3482 146.367,25.9305 147.036,25.9305 C148.007,25.9305 148.375,26.699 148.141,28.2695 C148.024,28.9879 147.823,29.9904 147.522,31.2769 L143.605,31.2769 L143.605,31.2602 Z M151.773,44.7932 L152.325,40.0149 C150.936,41.1009 149.714,41.8861 148.626,42.354 C147.538,42.8218 146.45,43.0557 145.329,43.0557 C144.275,43.0557 143.421,42.7883 142.785,42.237 C142.149,41.6856 141.797,40.9004 141.73,39.9147 C141.647,38.8454 141.864,37.3083 142.383,35.27 L155.488,35.27 C155.589,34.9024 155.656,34.6685 155.689,34.5683 C156.426,31.9285 156.727,29.7899 156.593,28.1526 C156.459,26.4985 155.873,25.1452 154.836,24.0425 C153.631,22.756 151.572,22.1044 148.626,22.1044 C145.078,22.1044 142.032,23.157 139.488,25.2622 C136.642,27.6346 134.651,30.8425 133.529,34.9191 C132.123,39.9982 133.061,43.5569 136.341,45.5451 C137.781,46.4306 139.839,46.865 142.567,46.865 C144.275,46.865 145.764,46.7313 147.036,46.4473 C148.291,46.1633 149.865,45.6119 151.773,44.7932 Z M120.525,31.2602 L124.441,31.2602 C124.742,29.9737 124.943,28.9712 125.06,28.2528 C125.311,26.6823 124.926,25.9138 123.956,25.9138 C123.286,25.9138 122.7,26.3315 122.165,27.1501 C121.629,27.9855 121.077,29.3555 120.525,31.2602 Z M128.709,44.7932 C126.801,45.6119 125.211,46.1633 123.939,46.4473 C122.667,46.7313 121.177,46.865 119.47,46.865 C116.759,46.865 114.683,46.4139 113.261,45.5451 C109.98,43.5402 109.043,39.9982 110.449,34.9191 C111.57,30.8592 113.562,27.6346 116.407,25.2622 C118.951,23.157 121.997,22.1044 125.546,22.1044 C128.475,22.1044 130.55,22.756 131.755,24.0425 C132.793,25.1452 133.379,26.4985 133.513,28.1526 C133.646,29.8066 133.345,31.9452 132.609,34.5683 C132.575,34.6685 132.525,34.9024 132.408,35.27 L119.303,35.27 C118.784,37.2916 118.566,38.8454 118.65,39.9147 C118.717,40.9004 119.068,41.6856 119.704,42.237 C120.34,42.7883 121.194,43.0557 122.248,43.0557 C123.353,43.0557 124.458,42.8218 125.546,42.354 C126.634,41.8861 127.855,41.1009 129.245,40.0149 L128.709,44.7932 Z M113.863,15.9561 L104.691,15.9561 C104.758,16.2902 104.725,16.758 104.574,17.3595 L96.908,45.0104 C96.724,45.6119 96.507,46.063 96.239,46.4139 L105.411,46.4139 C105.344,46.0463 105.377,45.5785 105.528,45.0104 L113.194,17.3595 C113.395,16.7413 113.612,16.2735 113.863,15.9561 Z M75.3175,44.6095 L78.2632,38.9289 C79.0164,39.7476 79.5855,40.3156 79.9704,40.6498 C81.2257,41.7692 82.6651,42.3205 84.2719,42.3205 C85.2761,42.3205 86.113,42.0866 86.8327,41.6021 C87.636,41.0842 88.155,40.3825 88.406,39.497 C88.674,38.5446 88.456,37.8095 87.7867,37.3083 C87.5021,37.1078 86.364,36.523 84.389,35.554 C82.2299,34.5014 80.9077,33.3152 80.4056,31.9786 C79.8867,30.5752 79.87,28.9712 80.3721,27.1668 C80.891,25.2956 81.845,23.5914 83.2174,22.071 C85.8619,19.1472 89.427,17.677 93.929,17.677 C96.54,17.677 98.934,18.2617 101.143,19.4312 L98.465,24.7944 C96.523,22.8396 94.699,21.8705 92.992,21.8705 C92.205,21.8705 91.502,22.1045 90.883,22.5556 C90.264,23.0067 89.845,23.5914 89.645,24.3098 C89.444,25.0617 89.544,25.6297 89.946,25.9806 C90.364,26.3482 91.686,27.0165 93.912,28.0356 C96.205,29.0715 97.578,30.3413 98.013,31.8616 C98.398,33.1314 98.348,34.6351 97.862,36.3727 C97.26,38.5112 96.272,40.4326 94.883,42.1368 C92.222,45.3446 88.523,46.9485 83.7363,46.9485 C82.0793,46.9485 80.6399,46.7814 79.4014,46.4306 C78.1628,46.0797 76.7904,45.4783 75.3175,44.6095 Z" id="Shape" fill="#0574BC"></path>
                <polygon id="Path" fill="#0574BC" points="202.771 9.9915 205.332 9.9915 206.102 7.452 206.905 9.9915 209.449 9.9915 207.39 11.5453 208.177 14.0849 206.102 12.5144 204.043 14.0849 204.83 11.5453"></polygon>
                <polygon id="Path" fill="#0574BC" points="190.386 4.428 194.051 4.428 195.189 0.80243 196.31 4.428 199.959 4.428 197.013 6.6668 198.152 10.2923 195.189 8.0535 192.227 10.2923 193.348 6.6668"></polygon>
                <polygon id="Path" fill="#0574BC" points="180.996 14.0515 183.908 14.0515 184.795 11.1778 185.699 14.0515 188.595 14.0515 186.251 15.8225 187.138 18.6962 184.795 16.9252 182.452 18.6962 183.339 15.8225"></polygon>
                <path d="M37.7932,18.2283 C38.5965,18.7797 39.3665,19.3644 40.1196,19.9492 C50.1954,15.104 56.84,8.9723 55.7856,5.0294 C54.5638,0.46822 41.8436,-0.50082 27.5166,3.3419 C17.7421,5.965 9.5576,9.4736 5.9424,13.7006 C11.3652,7.5856 25.2738,9.4736 37.7932,18.2283 Z" id="Path" fill="#7097CF" fill-rule="nonzero"></path>
                <path d="M53.593,41.6857 C53.9612,43.0557 53.8608,44.3923 53.3587,45.6621 C56.1203,38.8788 50.6305,28.1526 40.1196,19.9325 C38.7137,20.6175 37.2408,21.2691 35.7177,21.8706 C21.9598,27.4342 6.2436,27.7015 4.1849,20.0328 C3.8335,18.7129 3.9171,17.4264 4.4025,16.19 C1.7078,22.873 6.9968,33.3486 17.173,41.5019 C18.445,40.9004 19.7672,40.3324 21.1229,39.781 C35.2826,34.0504 51.4674,33.783 53.593,41.6857 Z" id="Path" fill="#EE3425" fill-rule="nonzero"></path>
                <path d="M19.968,43.607 C18.9973,42.922 18.06,42.2203 17.1562,41.5019 C6.4611,46.5475 -0.6856,53.0133 0.4358,57.1401 C1.6911,61.8349 14.7962,62.8373 29.5417,58.8777 C40.2367,56.0207 49.0739,52.1111 52.3879,47.3996 C47.4504,54.3833 32.956,52.6792 19.968,43.607 Z" id="Path" fill="#FDB816" fill-rule="nonzero"></path>
                <path d="M4.185,20.0327 C6.2437,27.7015 21.9598,27.4341 35.7178,21.8705 C37.2409,21.2524 38.7137,20.6008 40.1196,19.9325 C39.3665,19.3477 38.5966,18.7797 37.7932,18.2116 C25.2905,9.4736 11.3652,7.5856 5.9424,13.6839 C5.5072,14.1851 4.7875,15.1541 4.4026,16.19 C3.9172,17.4264 3.8168,18.7128 4.185,20.0327 Z" id="Path" fill="#8A4F9F" fill-rule="nonzero"></path>
                <path d="M53.3585,45.662 C53.8774,44.3923 53.9611,43.0557 53.5929,41.6857 C51.4672,33.783 35.2824,34.0503 21.1228,39.781 C19.7671,40.3323 18.4449,40.9004 17.1729,41.5019 C18.0767,42.2203 19.0139,42.922 19.9847,43.607 C32.956,52.6792 47.4503,54.3666 52.4045,47.4163 C52.4213,47.3829 52.9568,46.6478 53.3585,45.662 Z" id="Path" fill="#F58220" fill-rule="nonzero"></path>
            </g>
            <text id="Help-&amp;-Support" font-family="Rubik-Medium, Rubik" font-size="14" font-weight="400" fill="#0574BC">
                <tspan x="139.102" y="67">HELP &amp; SUPPORT</tspan>
            </text>
        </g>
    </g>
</svg>